<?xml version="1.0" encoding="UTF-8"?>
<svg id="Layer_2" xmlns="http://www.w3.org/2000/svg" viewBox="0 0 668.79 576.19">
  <defs>
    <style>
      .cls-1 {
        fill: #f7d0e2;
      }
    </style>
  </defs>
  <path class="cls-1" d="M173.49,387.62s42.67-32.95,45.52-42.1-2.1-50.86-6.29-53.71-7.24,1.9-12.19-1.9-14.1-24.38-22.86-27.43-28.38,7.43-44.19,4.57-20.57-13.52-32.95-13.71-13.52,9.52-20.19,10.86-15.43.76-16.95,1.71-5.14,3.62-9.14,3.62-9.71-4.95-9.9-9.9,17.9-27.24,23.81-33.33,14.29-18.86,16.95-24,6.86-14.48,11.62-12.38,9.71,11.81,9.14,16.19-4.57,13.71.57,13.52,33.14-15.43,44.95-35.43,45.71-52.95,77.52-47.81,59.62,21.33,70.1,29.9,39.24,28.57,54.1,37.14,50.86,33.52,68.57,39.81,40.57,19.43,69.33,22.48,50.29,9.14,69.33,2.1,64.95-29.71,64.95-29.71c0,0-52.57,51.24-104.19,48.57s-93.52-13.71-140.38-37.9c-46.86-24.19-63.05-35.62-70.29-33.33s-10.1,16.95-19.81,22.1-30.67,8-36.38,21.71-2.29,74.1-5.33,82.29-28.19,27.24-30.67,31.81-27.62,23.62-32.57,24.19-12.95-3.24-12.19-9.9Z"/>
</svg>